<svg width="14" height="14" viewBox="0 0 14 14" fill="none" xmlns="http://www.w3.org/2000/svg">
<path fill-rule="evenodd" clip-rule="evenodd" d="M2 5.5C2 5.5 2 4.48308 2.39313 3.55362C2.39313 3.55362 2.77269 2.65624 3.46447 1.96447C3.46447 1.96447 4.15624 1.27269 5.05362 0.89313C5.05362 0.89313 5.98308 0.5 7 0.5C7 0.5 8.01691 0.5 8.94638 0.89313C8.94638 0.89313 9.84376 1.27269 10.5355 1.96447C10.5355 1.96447 11.2273 2.65624 11.6069 3.55362C11.6069 3.55362 12 4.48309 12 5.5V8.5C12 8.5 12 9.51692 11.6069 10.4464C11.6069 10.4464 11.2273 11.3438 10.5355 12.0355C10.5355 12.0355 9.84376 12.7273 8.94638 13.1069C8.94638 13.1069 8.01691 13.5 7 13.5C7 13.5 5.98308 13.5 5.05362 13.1069C5.05362 13.1069 4.15624 12.7273 3.46447 12.0355C3.46447 12.0355 2.77269 11.3438 2.39313 10.4464C2.39313 10.4464 2 9.51691 2 8.5V5.5ZM3 5.5V8.5C3 8.5 3 10.1569 4.17157 11.3284C4.17157 11.3284 5.34315 12.5 7 12.5C7 12.5 8.65685 12.5 9.82843 11.3284C9.82843 11.3284 11 10.1569 11 8.5V5.5C11 5.5 11 3.84315 9.82843 2.67157C9.82843 2.67157 8.65685 1.5 7 1.5C7 1.5 5.34315 1.5 4.17157 2.67157C4.17157 2.67157 3 3.84315 3 5.5Z" fill="#1C1C1C"/>
<path d="M11.5 8H13C13.2761 8 13.5 7.77614 13.5 7.5C13.5 7.22386 13.2761 7 13 7H11.5C11.2239 7 11 7.22386 11 7.5C11 7.77614 11.2239 8 11.5 8Z" fill="#1C1C1C"/>
<path d="M1 8H2.5C2.77614 8 3 7.77614 3 7.5C3 7.22386 2.77614 7 2.5 7H1C0.723858 7 0.5 7.22386 0.5 7.5C0.5 7.77614 0.723858 8 1 8Z" fill="#1C1C1C"/>
<path d="M1 10H2.6125C2.88864 10 3.1125 9.77614 3.1125 9.5C3.1125 9.22386 2.88864 9 2.6125 9H1C0.723858 9 0.5 9.22386 0.5 9.5C0.5 9.77614 0.723858 10 1 10Z" fill="#1C1C1C"/>
<path d="M1 6H13C13.2761 6 13.5 5.77614 13.5 5.5C13.5 5.22386 13.2761 5 13 5H1C0.723858 5 0.5 5.22386 0.5 5.5C0.5 5.77614 0.723858 6 1 6Z" fill="#1C1C1C"/>
<path d="M6.5 7.5V13C6.5 13.2761 6.72386 13.5 7 13.5C7.27614 13.5 7.5 13.2761 7.5 13V7.5C7.5 7.22386 7.27614 7 7 7C6.72386 7 6.5 7.22386 6.5 7.5Z" fill="#1C1C1C"/>
<path d="M11.3875 10H13C13.2762 10 13.5 9.77614 13.5 9.5C13.5 9.22386 13.2762 9 13 9H11.3875C11.1114 9 10.8875 9.22386 10.8875 9.5C10.8875 9.77614 11.1114 10 11.3875 10Z" fill="#1C1C1C"/>
<path d="M2.14945 1.11258L3.63695 2.52508C3.72987 2.61331 3.85311 2.6625 3.98124 2.6625L3.98218 2.6625L3.99417 2.66233C4.12673 2.6589 4.25251 2.60296 4.34382 2.50679C4.43205 2.41388 4.48124 2.29063 4.48124 2.1625L4.48124 2.16156L4.48108 2.14957C4.47765 2.01701 4.4217 1.89124 4.32554 1.79992L2.83804 0.387424C2.74512 0.299193 2.62188 0.25 2.49374 0.25L2.48082 0.250167C2.34825 0.253596 2.22248 0.309544 2.13117 0.405705C2.04294 0.498622 1.99374 0.621866 1.99374 0.75L1.99391 0.762927C1.99734 0.895491 2.05329 1.02126 2.14945 1.11258Z" fill="#1C1C1C"/>
<path d="M11.1495 0.387386L9.66826 1.79364C9.57209 1.88494 9.51612 2.0107 9.51268 2.14327L9.51251 2.15625L9.51263 2.16729C9.51538 2.29156 9.56431 2.41036 9.6499 2.5005C9.7412 2.59668 9.86697 2.65264 9.99953 2.65608L10.0125 2.65625L10.0236 2.65613C10.1478 2.65338 10.2666 2.60445 10.3568 2.51886L11.838 1.11261C11.9342 1.02131 11.9902 0.895546 11.9936 0.762982L11.9938 0.75L11.9936 0.738957C11.9909 0.614686 11.942 0.495893 11.8564 0.405746C11.7651 0.309575 11.6393 0.253612 11.5067 0.250169L11.4938 0.25L11.4827 0.250122C11.3584 0.252867 11.2397 0.301803 11.1495 0.387386Z" fill="#1C1C1C"/>
</svg>
