<svg width="14" height="14" viewBox="0 0 14 14" fill="none" xmlns="http://www.w3.org/2000/svg">
<path d="M9.22214 1.4979C8.39229 -0.499298 5.60771 -0.4993 4.77786 1.4979L4.34287 2.5448C4.16966 2.96165 3.79224 3.24511 3.36085 3.29395L2.14697 3.43139C0.0949512 3.66374 -0.723878 6.21824 0.751562 7.64469L1.78222 8.64112C2.08671 8.9355 2.22362 9.37218 2.13965 9.79688L1.89081 11.0555C1.47765 13.1452 3.72944 14.7764 5.5439 13.6115L6.35797 13.0889C6.75085 12.8367 7.24915 12.8367 7.64203 13.0889L8.4561 13.6115C10.2706 14.7764 12.5223 13.1452 12.1092 11.0555L11.8603 9.79688C11.7764 9.37218 11.9133 8.9355 12.2178 8.64112L13.2484 7.64469C14.7239 6.21824 13.905 3.66374 11.853 3.43139L10.6391 3.29395C10.2078 3.24511 9.83034 2.96165 9.65713 2.5448L9.22214 1.4979Z" fill="#FAFAFA"/>
</svg>
